<svg id="svg" version="1.1" xmlns="http://www.w3.org/2000/svg" xmlns:xlink="http://www.w3.org/1999/xlink" width="400" height="266.6666666666667" viewBox="0, 0, 400,266.6666666666667"><g id="svgg"><path id="path0" d="M132.234 90.990 C 132.102 93.898,131.716 96.071,130.875 98.640 C 130.573 99.560,130.324 100.383,130.320 100.469 C 130.316 100.555,131.290 101.235,132.484 101.979 L 134.656 103.333 156.599 103.333 L 178.542 103.333 178.542 100.938 L 178.542 98.542 174.396 98.542 C 164.720 98.542,156.229 95.073,151.501 89.188 L 150.814 88.333 141.584 88.333 L 132.355 88.333 132.234 90.990 M220.208 89.637 C 214.869 95.495,208.102 98.277,198.698 98.482 L 193.750 98.589 193.750 100.961 L 193.750 103.333 215.677 103.323 L 237.604 103.313 239.688 101.984 C 242.038 100.483,241.947 100.723,241.151 98.125 C 240.396 95.665,239.993 93.136,239.940 90.542 L 239.896 88.334 230.625 88.357 L 221.354 88.380 220.208 89.637 M112.604 117.092 C 109.899 118.010,107.017 118.542,104.755 118.542 L 103.125 118.542 103.125 156.665 L 103.125 194.789 117.105 194.842 L 131.085 194.896 127.099 199.375 C 122.727 204.288,122.053 205.333,121.627 207.864 C 120.819 212.671,124.045 217.457,128.882 218.628 C 129.966 218.890,127.890 218.926,110.483 218.941 L 90.862 218.958 91.758 217.031 C 92.252 215.971,92.862 214.532,93.115 213.833 L 93.575 212.562 94.332 212.948 C 96.713 214.162,98.125 212.894,98.125 209.540 C 98.125 206.845,97.715 206.115,96.080 205.895 C 95.183 205.775,95.182 205.774,95.290 205.023 C 95.350 204.609,95.459 203.779,95.532 203.177 L 95.664 202.083 90.228 202.083 L 84.792 202.083 84.792 203.958 L 84.792 205.833 85.417 205.833 L 86.042 205.833 86.042 207.292 L 86.042 208.750 84.583 208.750 L 83.125 208.750 83.125 207.292 L 83.125 205.833 83.750 205.833 L 84.375 205.833 84.375 203.958 L 84.375 202.083 81.652 202.083 L 78.928 202.083 79.062 203.281 C 79.653 208.556,81.155 213.823,83.243 217.944 L 83.757 218.958 80.212 218.958 L 76.667 218.958 76.667 226.667 L 76.667 234.375 84.483 234.375 L 92.299 234.375 92.243 250.521 L 92.188 266.667 97.083 266.667 L 101.979 266.667 101.925 250.521 L 101.870 234.375 120.606 234.375 L 139.342 234.375 139.411 239.323 C 139.491 245.122,139.669 245.751,141.778 247.678 C 143.168 248.949,144.279 249.336,146.771 249.418 L 148.646 249.479 148.646 258.073 L 148.646 266.667 186.250 266.667 L 223.854 266.667 223.854 258.073 L 223.854 249.479 225.208 249.443 C 231.089 249.287,232.708 247.066,232.708 239.159 L 232.708 234.375 253.232 234.375 L 273.755 234.375 273.700 250.521 L 273.646 266.667 278.594 266.667 L 283.542 266.667 283.542 264.792 L 283.542 262.917 313.333 262.917 L 343.125 262.917 343.125 264.792 L 343.125 266.667 348.021 266.667 L 352.917 266.667 352.917 242.813 L 352.917 218.958 339.479 218.958 L 326.042 218.958 326.042 218.364 C 326.042 214.729,319.617 214.507,319.039 218.122 L 318.905 218.958 302.942 218.944 C 289.755 218.933,287.124 218.885,287.813 218.667 C 290.590 217.789,291.526 216.637,291.991 213.530 C 292.535 209.892,293.503 209.573,296.042 212.192 C 298.425 214.652,301.899 214.567,304.763 211.981 C 305.197 211.588,305.805 211.171,306.115 211.054 C 306.865 210.768,307.051 210.232,306.545 209.811 C 305.892 209.268,305.851 205.825,306.483 204.653 C 306.981 203.730,306.793 202.081,306.190 202.085 C 305.510 202.088,300.982 203.422,299.398 204.085 C 297.390 204.925,288.381 208.210,286.771 208.688 C 281.777 210.173,277.867 211.761,277.749 212.351 C 277.597 213.108,278.262 214.079,279.105 214.332 C 280.187 214.656,282.378 217.602,282.166 218.447 L 282.038 218.958 262.009 218.937 C 245.696 218.920,242.192 218.868,243.125 218.661 C 249.589 217.223,252.802 209.598,249.209 204.222 C 248.602 203.314,241.701 195.367,241.412 195.243 C 240.534 194.867,242.835 194.792,255.208 194.792 L 269.167 194.792 269.167 156.667 L 269.167 118.542 267.552 118.541 C 265.240 118.540,262.405 118.029,259.556 117.100 L 257.083 116.293 257.083 148.042 L 257.083 179.792 242.448 179.779 L 227.813 179.765 225.854 177.489 L 223.896 175.213 215.125 175.158 L 206.354 175.104 206.293 173.698 L 206.231 172.292 207.386 172.292 L 208.542 172.292 208.542 169.635 L 208.542 166.979 202.969 167.028 L 197.396 167.078 199.301 166.081 C 203.721 163.769,206.463 160.533,207.653 156.227 C 208.142 154.456,208.218 130.284,207.740 128.333 C 206.172 121.927,199.992 117.003,192.668 116.322 C 191.396 116.204,191.125 116.251,189.951 116.793 C 188.038 117.676,185.088 117.677,183.177 116.794 C 181.614 116.073,179.945 116.125,176.960 116.991 C 170.276 118.927,165.879 123.853,165.192 130.173 C 164.806 133.721,165.062 154.818,165.509 156.354 C 166.752 160.619,169.776 164.119,173.955 166.127 L 175.729 166.979 173.750 167.040 C 172.661 167.073,170.154 167.073,168.177 167.040 L 164.583 166.979 164.583 169.635 L 164.583 172.292 165.729 172.292 L 166.875 172.292 166.875 173.750 L 166.875 175.208 157.727 175.208 L 148.579 175.208 146.553 177.500 L 144.527 179.792 129.868 179.792 L 115.208 179.792 115.208 148.021 C 115.208 130.547,115.138 116.265,115.052 116.283 C 114.966 116.301,113.865 116.665,112.604 117.092 M206.198 192.031 C 195.112 192.061,176.971 192.061,165.885 192.031 C 154.799 192.001,163.870 191.977,186.042 191.977 C 208.214 191.977,217.284 192.001,206.198 192.031 M141.875 193.607 C 141.875 193.643,141.570 193.947,141.198 194.284 L 140.521 194.896 141.133 194.219 C 141.703 193.588,141.875 193.446,141.875 193.607 M233.073 210.260 C 233.039 212.466,233.011 210.661,233.011 206.250 C 233.011 201.839,233.039 200.034,233.073 202.240 C 233.106 204.445,233.106 208.055,233.073 210.260 M305.055 205.365 C 305.423 206.295,305.698 208.755,305.472 209.091 C 305.363 209.254,304.303 208.822,302.099 207.717 L 298.886 206.107 300.537 205.668 C 304.055 204.733,304.483 204.621,304.613 204.602 C 304.686 204.592,304.885 204.935,305.055 205.365 M298.333 207.195 C 299.547 207.751,304.579 211.047,304.582 211.288 C 304.594 212.442,299.765 213.750,298.271 212.998 C 294.296 210.996,294.357 205.375,298.333 207.195 M96.809 207.328 C 97.581 208.053,97.534 211.237,96.743 211.860 C 96.027 212.423,95.153 212.408,94.500 211.823 L 93.978 211.354 94.519 209.115 C 95.120 206.625,95.634 206.224,96.809 207.328 M293.923 208.014 C 293.037 208.838,291.713 209.261,290.646 209.061 L 289.901 208.921 290.627 208.601 C 291.513 208.212,294.191 207.312,294.479 207.307 C 294.594 207.305,294.343 207.623,293.923 208.014 M289.994 210.204 C 291.733 211.442,291.632 215.386,289.824 216.883 C 288.720 217.795,284.583 218.874,284.583 218.248 C 284.583 217.820,286.163 212.894,286.643 211.824 C 287.687 209.496,288.469 209.118,289.994 210.204 M284.317 214.060 L 282.834 217.286 282.405 216.884 C 281.845 216.358,280.704 214.419,280.547 213.726 C 280.437 213.243,284.662 210.855,285.660 210.836 C 285.737 210.835,285.132 212.285,284.317 214.060 M139.375 216.667 L 139.375 218.958 135.677 218.941 C 132.031 218.924,131.996 218.919,133.201 218.628 C 135.055 218.179,136.702 217.197,138.060 215.732 C 138.726 215.012,139.294 214.413,139.323 214.399 C 139.352 214.386,139.375 215.406,139.375 216.667 M235.007 216.629 C 236.267 217.648,237.208 218.122,238.781 218.534 L 240.313 218.935 236.510 218.947 L 232.708 218.958 232.708 216.806 C 232.708 214.250,232.774 214.137,233.629 215.217 C 233.990 215.673,234.610 216.309,235.007 216.629 M343.125 247.604 L 343.125 260.833 313.333 260.833 L 283.542 260.833 283.542 247.604 L 283.542 234.375 313.333 234.375 L 343.125 234.375 343.125 247.604 M297.448 244.745 L 294.375 244.803 294.375 247.922 L 294.375 251.042 297.500 251.042 L 300.625 251.042 300.625 250.313 L 300.625 249.583 312.500 249.583 L 324.375 249.583 324.375 250.313 L 324.375 251.042 327.505 251.042 L 330.636 251.042 330.578 247.905 L 330.521 244.768 327.448 244.728 L 324.375 244.688 324.375 245.469 L 324.375 246.250 312.512 246.250 L 300.649 246.250 300.585 245.469 L 300.521 244.688 297.448 244.745 M175.992 258.073 L 175.942 266.563 175.885 258.179 L 175.829 249.795 162.341 249.740 L 148.854 249.684 162.448 249.634 L 176.042 249.583 175.992 258.073 M216.719 249.739 C 212.909 249.771,206.674 249.771,202.865 249.739 C 199.055 249.708,202.172 249.682,209.792 249.682 C 217.411 249.682,220.529 249.708,216.719 249.739 " stroke="none" fill="#3d363d" fill-rule="evenodd"></path><path id="path1" d="M168.445 41.367 C 144.952 45.083,135.744 73.947,152.809 90.384 C 158.690 96.048,164.416 98.268,173.698 98.482 L 178.542 98.594 178.542 101.066 L 178.542 103.538 156.846 103.592 C 135.300 103.645,135.144 103.643,134.398 103.218 C 133.476 102.694,130.208 100.603,130.208 100.537 C 130.208 100.511,130.445 99.794,130.735 98.943 C 136.351 82.453,125.843 64.800,108.450 61.504 C 105.134 60.875,74.237 60.969,71.315 61.616 C 44.323 67.594,39.513 103.348,64.063 115.523 C 69.995 118.465,70.638 118.540,90.000 118.540 C 108.196 118.539,109.948 118.389,114.323 116.456 L 115.208 116.065 115.208 147.824 L 115.208 179.583 129.877 179.583 L 144.546 179.583 146.572 177.292 L 148.598 175.000 157.632 175.000 L 166.667 175.000 166.667 173.750 L 166.667 172.500 165.521 172.500 L 164.375 172.500 164.375 169.688 L 164.375 166.875 166.035 166.875 L 167.696 166.875 167.761 164.219 L 167.826 161.563 167.871 164.219 L 167.917 166.875 171.510 166.870 L 175.104 166.864 173.634 166.083 C 169.499 163.888,166.763 160.687,165.487 156.552 C 165.133 155.405,165.104 154.328,165.104 142.083 L 165.104 128.854 165.670 127.188 C 167.706 121.186,173.198 117.052,180.197 116.252 C 181.864 116.062,182.013 116.079,183.023 116.573 C 185.347 117.710,187.649 117.713,190.116 116.584 C 193.475 115.046,201.256 118.078,204.725 122.277 C 208.051 126.301,208.156 126.941,208.081 142.708 L 208.021 155.521 207.433 157.186 C 206.061 161.066,203.468 163.972,199.491 166.083 L 198.021 166.864 203.385 166.870 L 208.750 166.875 208.750 169.688 L 208.750 172.500 207.604 172.500 L 206.458 172.500 206.458 173.750 L 206.458 175.000 215.167 175.000 L 223.876 175.000 225.844 177.286 L 227.813 179.571 242.396 179.577 L 256.979 179.583 256.926 147.917 C 256.896 130.500,256.803 116.250,256.717 116.250 C 256.632 116.250,256.587 130.312,256.616 147.500 C 256.645 164.687,256.619 178.750,256.556 178.750 C 256.494 178.750,255.158 177.783,253.586 176.600 C 241.705 167.659,225.211 156.584,211.932 148.630 L 210.219 147.604 210.217 144.375 C 210.215 142.215,210.282 141.249,210.417 141.458 C 210.548 141.661,210.620 141.681,210.622 141.514 C 210.624 141.372,210.336 140.950,209.982 140.576 C 209.629 140.202,209.400 140.013,209.474 140.156 C 209.639 140.477,209.537 140.482,208.878 140.181 L 208.362 139.946 208.294 134.192 C 208.205 126.734,207.729 125.223,204.299 121.532 C 200.600 117.551,193.124 114.808,190.099 116.322 C 187.867 117.439,185.266 117.449,183.074 116.348 C 179.373 114.489,171.001 118.215,167.326 123.355 L 166.640 124.314 160.351 121.452 C 153.564 118.364,147.820 115.874,141.563 113.309 C 138.292 111.968,137.618 111.621,137.683 111.312 C 137.976 109.913,137.788 107.147,137.342 106.310 C 136.799 105.290,136.737 104.957,137.199 105.533 C 137.509 105.920,137.513 105.918,137.293 105.463 C 137.166 105.202,136.988 105.034,136.898 105.090 C 136.807 105.146,136.418 104.868,136.034 104.471 L 135.335 103.750 156.938 103.750 L 178.542 103.750 178.546 104.219 C 178.549 104.477,178.736 105.096,178.963 105.596 C 179.447 106.662,179.459 106.740,179.115 106.541 C 178.963 106.454,178.927 106.471,179.028 106.581 C 179.123 106.685,179.303 106.771,179.427 106.771 C 179.551 106.771,179.696 106.901,179.749 107.060 C 179.815 107.259,179.756 107.297,179.558 107.181 C 179.400 107.088,179.449 107.215,179.668 107.464 C 180.111 107.970,180.407 108.094,180.000 107.604 C 179.514 107.018,179.920 107.290,180.534 107.961 C 180.870 108.329,180.958 108.494,180.729 108.329 C 180.317 108.031,180.317 108.033,180.709 108.493 C 181.129 108.985,181.374 109.119,181.129 108.723 C 181.049 108.594,181.067 108.528,181.169 108.577 C 183.380 109.649,183.457 109.669,185.625 109.751 C 187.774 109.832,188.559 109.687,190.503 108.851 C 190.807 108.720,190.861 108.745,190.731 108.955 C 190.614 109.144,190.641 109.181,190.815 109.074 C 190.955 108.987,191.016 108.863,190.951 108.798 C 190.804 108.651,191.449 107.917,191.724 107.917 C 191.835 107.917,191.800 108.081,191.646 108.281 C 191.493 108.482,191.622 108.419,191.933 108.141 C 192.523 107.615,192.735 107.254,192.188 107.708 C 192.016 107.851,191.875 107.877,191.875 107.766 C 191.875 107.527,192.530 106.904,192.778 106.907 C 192.873 106.909,193.014 106.840,193.090 106.755 C 193.167 106.670,193.112 106.667,192.969 106.750 C 192.602 106.961,192.641 106.776,193.177 105.773 C 193.614 104.956,193.641 104.680,193.583 101.719 L 193.521 98.542 197.235 98.542 C 204.269 98.542,208.673 97.538,213.438 94.848 C 236.746 81.689,231.365 47.693,205.000 41.539 C 202.834 41.033,171.488 40.886,168.445 41.367 M176.394 51.790 C 176.544 51.995,176.667 52.420,176.667 52.734 C 176.667 53.520,177.370 53.737,178.000 53.145 C 178.684 52.502,179.235 52.607,180.080 53.542 C 180.951 54.507,180.991 54.744,180.402 55.492 C 179.832 56.216,180.025 56.875,180.808 56.875 C 182.789 56.875,182.808 59.985,180.830 60.390 C 179.944 60.571,179.818 61.021,180.425 61.842 C 181.425 63.195,179.371 65.192,178.049 64.151 C 177.309 63.570,176.819 63.703,176.649 64.531 C 176.258 66.444,173.533 66.444,173.142 64.531 C 172.972 63.700,172.505 63.579,171.716 64.163 C 170.365 65.162,168.353 63.117,169.390 61.799 C 169.972 61.059,169.839 60.569,169.010 60.399 C 167.160 60.021,167.114 56.875,168.959 56.875 C 169.767 56.875,169.968 56.228,169.389 55.492 C 168.345 54.165,170.542 51.970,171.765 53.119 C 172.431 53.745,173.125 53.536,173.125 52.709 C 173.125 51.401,175.600 50.705,176.394 51.790 M173.417 57.167 C 171.991 58.592,172.878 60.729,174.896 60.729 C 175.730 60.729,175.954 60.633,176.475 60.049 C 178.378 57.920,175.435 55.148,173.417 57.167 M192.357 60.451 C 193.103 60.848,193.320 61.294,193.327 62.448 C 193.334 63.730,193.645 64.136,194.945 64.565 L 195.822 64.855 196.761 63.990 C 198.168 62.693,198.868 62.760,200.450 64.342 C 202.032 65.924,202.099 66.624,200.802 68.031 L 199.937 68.969 200.227 69.847 C 200.655 71.146,201.062 71.457,202.344 71.465 C 204.098 71.476,204.583 72.101,204.583 74.350 C 204.583 76.384,204.116 76.935,202.264 77.082 C 200.070 77.258,199.368 78.956,200.833 80.545 C 202.100 81.919,202.016 82.515,200.331 84.134 C 198.660 85.738,197.857 85.771,196.474 84.291 C 195.915 83.692,195.514 83.628,194.645 83.999 C 193.541 84.470,193.333 84.779,193.333 85.958 C 193.333 87.792,192.792 88.229,190.521 88.229 C 188.249 88.229,187.708 87.792,187.708 85.958 C 187.708 84.779,187.501 84.470,186.396 83.999 C 185.500 83.616,185.241 83.686,184.221 84.583 C 182.833 85.806,182.334 85.737,180.694 84.097 C 179.041 82.444,178.965 81.893,180.208 80.545 C 181.664 78.965,180.971 77.258,178.802 77.083 C 176.880 76.928,176.563 76.531,176.563 74.282 C 176.563 72.003,176.971 71.458,178.682 71.458 C 180.829 71.458,181.658 69.618,180.237 68.004 C 178.974 66.569,179.032 65.963,180.583 64.367 C 182.154 62.752,182.861 62.681,184.287 63.996 C 185.218 64.854,185.244 64.863,186.002 64.598 C 187.533 64.064,187.708 63.857,187.708 62.583 C 187.708 60.536,190.293 59.351,192.357 60.451 M265.543 61.257 C 247.497 63.425,235.814 81.371,241.288 98.516 C 242.017 100.800,242.191 100.470,239.306 102.271 L 237.258 103.549 215.556 103.595 L 193.854 103.641 215.277 103.748 L 236.700 103.854 236.112 104.375 L 235.524 104.896 235.938 104.375 L 236.351 103.854 235.780 104.359 C 235.193 104.877,235.025 105.138,235.444 104.879 C 235.587 104.791,235.641 104.847,235.583 105.023 C 235.530 105.182,235.385 105.313,235.260 105.313 C 235.136 105.313,234.957 105.398,234.861 105.502 C 234.760 105.612,234.797 105.629,234.948 105.542 C 235.293 105.343,235.282 105.405,234.769 106.566 C 234.048 108.195,234.148 110.287,235.029 112.042 C 235.944 113.866,235.933 113.834,235.600 113.641 C 235.430 113.543,235.384 113.553,235.486 113.665 C 235.582 113.769,235.761 113.854,235.885 113.854 C 236.010 113.854,236.155 113.984,236.208 114.144 C 236.274 114.342,236.213 114.380,236.017 114.266 C 235.847 114.168,235.800 114.178,235.903 114.290 C 235.998 114.394,236.139 114.481,236.215 114.482 C 236.483 114.489,236.875 114.818,236.875 115.038 C 236.875 115.174,236.734 115.152,236.510 114.983 C 236.310 114.831,236.516 115.101,236.969 115.583 C 237.760 116.424,238.246 116.794,237.708 116.146 C 237.564 115.972,237.541 115.833,237.657 115.833 C 237.936 115.833,238.362 116.360,238.208 116.514 C 238.141 116.581,238.372 116.783,238.720 116.964 C 239.625 117.432,239.833 117.354,238.958 116.875 C 238.015 116.359,238.175 116.359,239.533 116.875 C 241.610 117.664,243.810 117.411,245.858 116.147 C 247.126 115.365,247.404 115.265,247.166 115.677 C 247.079 115.828,247.096 115.865,247.206 115.764 C 247.310 115.668,247.396 115.489,247.396 115.365 C 247.396 115.240,247.526 115.095,247.685 115.042 C 247.878 114.978,247.920 115.035,247.809 115.213 C 247.700 115.390,247.727 115.430,247.888 115.330 C 248.022 115.247,248.083 115.100,248.023 115.003 C 247.963 114.907,248.230 114.632,248.617 114.393 C 249.420 113.897,249.674 113.844,249.458 114.219 C 249.371 114.370,249.388 114.406,249.498 114.306 C 249.602 114.210,249.688 114.030,249.688 113.906 C 249.688 113.782,249.818 113.637,249.977 113.584 C 250.175 113.518,250.214 113.578,250.100 113.775 C 250.001 113.945,250.011 113.991,250.123 113.889 C 250.227 113.793,250.313 113.633,250.313 113.533 C 250.313 113.041,251.119 112.749,251.604 113.067 C 251.866 113.239,252.033 113.455,251.975 113.549 C 251.883 113.697,252.464 114.193,253.281 114.666 C 253.897 115.022,253.474 114.575,252.802 114.160 C 252.394 113.908,252.107 113.657,252.162 113.602 C 252.217 113.547,252.667 113.779,253.162 114.119 C 255.393 115.650,259.587 117.309,263.125 118.061 C 265.799 118.630,298.345 118.637,300.971 118.070 C 323.587 113.186,331.894 85.944,315.729 69.672 C 311.494 65.408,306.493 62.716,300.621 61.538 C 298.654 61.144,268.499 60.902,265.543 61.257 M189.524 69.395 C 185.504 70.338,184.215 75.339,187.308 77.987 C 190.511 80.729,195.428 78.466,195.412 74.257 C 195.400 71.095,192.496 68.697,189.524 69.395 M280.833 80.223 L 280.833 90.029 285.617 98.311 C 291.355 108.243,290.876 107.134,289.646 107.652 C 277.130 112.924,263.335 104.184,262.773 90.625 C 262.365 80.776,269.559 72.014,279.167 70.659 C 279.911 70.554,280.591 70.457,280.677 70.442 C 280.763 70.428,280.833 74.830,280.833 80.223 M285.104 70.733 C 293.424 71.678,300.109 78.685,301.349 87.760 L 301.484 88.750 292.304 88.750 L 283.125 88.750 283.125 79.569 C 283.125 70.926,283.146 70.395,283.490 70.490 C 283.690 70.545,284.417 70.655,285.104 70.733 M285.833 79.688 L 285.833 86.042 292.204 86.042 L 298.575 86.042 298.432 85.365 C 297.667 81.742,294.481 77.445,291.044 75.403 C 289.736 74.626,286.602 73.333,286.027 73.333 C 285.912 73.333,285.833 75.921,285.833 79.688 M86.708 75.026 C 89.468 75.611,92.655 78.619,93.239 81.191 C 93.245 81.215,93.706 81.005,94.264 80.722 C 97.347 79.161,100.751 81.124,101.206 84.725 C 101.354 85.887,101.358 85.893,102.272 86.163 C 107.569 87.725,109.266 94.930,105.273 98.910 C 102.934 101.241,102.626 101.281,87.456 101.207 L 74.896 101.146 73.646 100.643 C 68.703 98.656,67.296 92.184,70.932 88.159 C 71.636 87.379,73.881 86.042,74.486 86.042 C 74.647 86.042,74.788 85.497,74.878 84.531 C 75.514 77.691,80.477 73.704,86.708 75.026 M82.979 83.950 C 80.731 85.320,81.639 88.750,84.249 88.750 C 87.004 88.750,87.840 84.897,85.315 83.842 C 84.349 83.438,83.774 83.465,82.979 83.950 M90.302 83.865 C 88.523 84.743,88.468 87.537,90.211 88.439 C 91.982 89.355,93.958 88.221,93.958 86.288 C 93.958 84.206,92.103 82.976,90.302 83.865 M81.667 89.421 C 80.325 90.101,79.792 91.228,79.792 93.388 L 79.792 95.021 80.569 95.346 C 80.997 95.525,82.075 95.721,82.965 95.782 L 84.583 95.893 84.583 95.023 C 84.583 93.998,85.008 92.879,85.551 92.475 C 85.852 92.251,85.938 91.910,85.941 90.938 C 85.943 90.250,85.990 89.547,86.045 89.375 C 86.231 88.797,82.828 88.833,81.667 89.421 M90.255 89.789 C 90.610 90.507,90.647 90.780,90.470 91.359 C 90.285 91.960,90.314 92.114,90.669 92.436 C 91.333 93.037,91.667 93.865,91.667 94.914 L 91.667 95.891 92.848 95.752 C 93.498 95.675,94.436 95.511,94.932 95.386 L 95.833 95.159 95.833 93.235 C 95.833 90.084,94.898 89.106,91.773 88.991 L 89.825 88.919 90.255 89.789 M87.036 89.740 C 85.599 91.376,87.743 93.526,89.280 91.989 C 89.905 91.364,89.933 90.652,89.360 89.924 C 88.834 89.256,87.550 89.154,87.036 89.740 M301.333 92.135 C 300.668 97.364,297.520 102.711,293.425 105.569 L 292.787 106.014 288.750 98.997 C 286.529 95.137,284.579 91.768,284.415 91.510 L 284.119 91.042 292.796 91.042 L 301.473 91.042 301.333 92.135 M86.026 93.317 C 85.080 94.263,85.109 96.310,86.073 96.646 C 86.901 96.935,89.029 96.940,90.052 96.656 L 90.833 96.439 90.833 95.183 C 90.833 93.303,90.182 92.708,88.125 92.708 C 86.756 92.708,86.585 92.758,86.026 93.317 M138.192 109.167 C 138.192 109.911,138.229 110.216,138.276 109.844 C 138.322 109.471,138.322 108.862,138.276 108.490 C 138.229 108.117,138.192 108.422,138.192 109.167 M233.803 109.063 C 233.805 109.521,233.848 109.684,233.897 109.425 C 233.947 109.166,233.945 108.791,233.893 108.591 C 233.841 108.392,233.800 108.604,233.803 109.063 M181.458 109.061 C 181.458 109.203,182.734 109.836,182.829 109.740 C 182.874 109.695,182.584 109.502,182.185 109.312 C 181.785 109.121,181.458 109.008,181.458 109.061 M184.948 110.154 C 185.549 110.196,186.534 110.196,187.135 110.154 C 187.737 110.112,187.245 110.077,186.042 110.077 C 184.839 110.077,184.346 110.112,184.948 110.154 M244.688 116.993 C 244.115 117.269,243.767 117.496,243.915 117.497 C 244.220 117.500,245.833 116.711,245.833 116.558 C 245.833 116.433,245.914 116.402,244.688 116.993 M164.145 140.685 L 163.438 141.162 163.438 145.313 L 163.438 149.463 164.145 149.940 C 164.894 150.444,164.867 150.583,164.101 150.174 C 163.184 149.686,163.139 149.454,163.132 145.279 L 163.125 141.287 163.766 140.748 C 164.119 140.451,164.507 140.208,164.630 140.208 C 164.753 140.208,164.535 140.423,164.145 140.685 M209.430 140.509 C 209.990 140.568,210.209 140.892,210.063 141.447 C 209.933 141.946,209.931 141.946,209.765 141.496 C 209.673 141.248,209.290 140.846,208.913 140.604 C 208.537 140.362,208.417 140.233,208.646 140.317 C 208.875 140.401,209.228 140.488,209.430 140.509 M210.708 144.792 C 210.708 146.453,210.740 147.133,210.780 146.302 C 210.819 145.471,210.819 144.112,210.780 143.281 C 210.740 142.451,210.708 143.130,210.708 144.792 M209.900 149.362 C 209.824 149.601,209.492 149.936,209.162 150.106 C 208.279 150.563,208.119 150.482,208.928 149.989 C 209.313 149.754,209.677 149.376,209.736 149.148 C 209.796 148.920,209.888 148.777,209.941 148.830 C 209.995 148.883,209.976 149.123,209.900 149.362 M205.571 165.356 C 205.531 166.134,205.498 165.552,205.498 164.063 C 205.497 162.573,205.530 161.936,205.571 162.648 C 205.611 163.359,205.612 164.578,205.571 165.356 M83.215 206.109 C 83.152 206.271,83.130 206.908,83.165 207.525 L 83.229 208.646 84.583 208.646 L 85.938 208.646 85.938 207.292 L 85.938 205.938 84.633 205.875 C 83.656 205.829,83.299 205.888,83.215 206.109 M311.979 211.778 C 308.441 212.347,295.477 215.062,294.667 215.403 C 294.325 215.547,294.231 215.771,294.231 216.439 L 294.231 217.292 306.705 217.292 L 319.179 217.292 319.812 216.571 C 320.160 216.174,320.761 215.736,321.146 215.596 C 321.834 215.348,321.842 215.332,321.545 214.758 C 320.068 211.902,317.050 210.962,311.979 211.778 M327.361 211.658 C 326.143 211.948,324.829 212.897,323.956 214.116 L 323.103 215.307 323.747 215.474 C 324.101 215.566,324.751 216.012,325.192 216.466 L 325.993 217.292 338.413 217.292 L 350.833 217.292 350.833 216.354 C 350.833 215.839,350.795 215.417,350.748 215.417 C 350.701 215.417,348.568 214.956,346.008 214.392 C 333.924 211.731,329.671 211.108,327.361 211.658 " stroke="none" fill="#b5e4fa" fill-rule="evenodd"></path><path id="path2" d="M0.000 133.229 L 0.000 266.458 46.042 266.458 L 92.083 266.458 92.083 250.417 L 92.083 234.375 84.271 234.375 L 76.458 234.375 76.458 226.667 L 76.458 218.958 80.087 218.958 L 83.716 218.958 82.979 217.448 C 80.907 213.202,78.958 206.020,78.958 202.630 L 78.958 202.083 87.313 202.083 L 95.667 202.083 95.527 203.594 C 95.450 204.424,95.340 205.268,95.284 205.469 C 95.201 205.760,95.311 205.833,95.830 205.833 C 97.588 205.833,98.333 206.954,98.333 209.597 C 98.333 212.736,96.757 214.073,94.276 213.037 L 93.566 212.740 93.002 214.234 C 92.691 215.057,92.075 216.456,91.633 217.344 L 90.829 218.958 110.258 218.945 C 127.428 218.933,129.560 218.897,128.590 218.635 C 124.423 217.514,121.448 213.660,121.463 209.405 C 121.476 206.045,122.095 204.926,127.005 199.389 L 130.990 194.896 117.057 194.842 L 103.125 194.789 103.125 156.665 L 103.125 118.542 88.698 118.541 C 70.811 118.540,69.927 118.432,64.063 115.523 C 39.513 103.348,44.323 67.594,71.315 61.616 C 74.237 60.969,105.134 60.875,108.450 61.504 C 121.378 63.954,130.546 73.931,132.195 87.344 L 132.317 88.333 141.483 88.333 C 148.362 88.333,150.612 88.273,150.501 88.093 C 150.419 87.960,149.841 87.140,149.215 86.270 C 136.849 69.055,147.545 44.455,168.748 41.345 C 172.180 40.842,202.711 41.005,205.000 41.539 C 226.117 46.465,235.319 70.786,222.299 87.258 L 221.449 88.333 230.696 88.333 L 239.943 88.333 240.086 86.752 C 241.182 74.653,250.603 64.403,263.190 61.616 C 266.164 60.957,297.009 60.876,300.409 61.518 C 318.180 64.873,328.574 83.171,322.270 100.000 C 319.280 107.980,312.399 114.563,304.323 117.170 C 300.354 118.451,301.032 118.406,284.427 118.486 L 269.167 118.559 269.167 156.674 L 269.167 194.789 255.225 194.842 L 241.284 194.896 245.219 199.375 C 249.532 204.285,250.236 205.387,250.646 207.872 C 251.428 212.607,248.315 217.346,243.560 218.657 C 242.770 218.875,246.028 218.924,262.319 218.940 L 282.035 218.958 282.139 218.415 C 282.312 217.510,280.113 214.672,278.946 214.293 C 278.232 214.062,277.767 213.420,277.659 212.518 C 277.592 211.954,281.513 210.118,284.643 209.249 C 287.148 208.552,297.129 205.028,299.282 204.079 C 300.826 203.399,305.283 202.088,306.062 202.085 C 306.763 202.082,307.139 203.712,306.609 204.455 C 305.975 205.344,306.021 209.235,306.673 209.842 C 307.199 210.332,307.009 210.734,306.078 211.107 C 305.657 211.276,305.125 211.625,304.896 211.884 C 304.667 212.143,304.057 212.632,303.542 212.972 C 302.850 213.427,302.741 213.559,303.125 213.475 C 315.977 210.664,319.780 210.921,321.508 214.713 C 321.959 215.702,323.084 215.389,324.076 213.999 C 326.492 210.612,329.102 210.659,346.008 214.390 C 348.568 214.954,350.701 215.417,350.748 215.417 C 350.795 215.417,350.833 215.839,350.833 216.354 C 350.833 217.215,350.876 217.292,351.354 217.292 C 351.823 217.292,351.875 217.375,351.875 218.125 C 351.875 218.875,351.927 218.958,352.396 218.958 L 352.917 218.958 352.917 242.708 L 352.917 266.458 376.458 266.458 L 400.000 266.458 400.000 133.229 L 400.000 0.000 200.000 0.000 L 0.000 0.000 0.000 133.229 M180.625 64.271 C 180.119 64.786,179.752 65.208,179.809 65.208 C 179.866 65.208,180.327 64.786,180.833 64.271 C 181.339 63.755,181.707 63.333,181.649 63.333 C 181.592 63.333,181.131 63.755,180.625 64.271 M200.313 64.375 C 200.877 64.948,201.385 65.417,201.443 65.417 C 201.500 65.417,201.085 64.948,200.521 64.375 C 199.957 63.802,199.448 63.333,199.391 63.333 C 199.333 63.333,199.748 63.802,200.313 64.375 M200.716 67.969 L 200.104 68.646 200.781 68.034 C 201.154 67.697,201.458 67.393,201.458 67.357 C 201.458 67.196,201.286 67.338,200.716 67.969 M176.527 74.271 C 176.528 75.073,176.565 75.376,176.610 74.943 C 176.655 74.511,176.655 73.855,176.609 73.485 C 176.563 73.115,176.526 73.469,176.527 74.271 M196.042 83.815 C 196.042 83.851,196.346 84.156,196.719 84.492 L 197.396 85.104 196.784 84.427 C 196.214 83.796,196.042 83.654,196.042 83.815 M189.952 88.276 C 190.326 88.322,190.889 88.321,191.202 88.274 C 191.515 88.226,191.208 88.188,190.521 88.190 C 189.833 88.191,189.577 88.230,189.952 88.276 M163.766 140.748 L 163.125 141.287 163.132 145.279 C 163.139 149.454,163.184 149.686,164.101 150.174 C 164.867 150.583,164.894 150.444,164.145 149.940 L 163.438 149.463 163.438 145.313 L 163.438 141.162 164.145 140.685 C 164.535 140.423,164.753 140.208,164.630 140.208 C 164.507 140.208,164.119 140.451,163.766 140.748 M208.913 140.627 C 209.290 140.857,209.682 141.255,209.786 141.512 C 209.889 141.769,209.977 141.839,209.980 141.667 C 209.989 141.258,209.592 140.753,209.024 140.451 C 208.266 140.047,208.182 140.181,208.913 140.627 M209.736 149.148 C 209.677 149.376,209.313 149.754,208.928 149.989 C 208.119 150.482,208.279 150.563,209.162 150.106 C 209.711 149.823,210.175 149.063,209.941 148.830 C 209.888 148.777,209.796 148.920,209.736 149.148 M205.498 164.063 C 205.498 165.552,205.531 166.134,205.571 165.356 C 205.612 164.578,205.611 163.359,205.571 162.648 C 205.530 161.936,205.497 162.573,205.498 164.063 M167.789 164.271 C 167.790 165.760,167.823 166.342,167.863 165.564 C 167.903 164.786,167.903 163.567,167.862 162.856 C 167.822 162.145,167.789 162.781,167.789 164.271 M302.083 205.306 C 300.766 205.665,299.547 206.010,299.375 206.074 C 299.102 206.175,304.787 209.167,305.252 209.167 C 305.475 209.167,305.452 206.966,305.219 205.960 C 304.904 204.602,304.772 204.575,302.083 205.306 M295.956 207.308 C 294.375 209.187,296.579 212.955,299.449 213.278 C 300.896 213.442,304.839 211.832,304.467 211.230 C 304.237 210.859,299.866 208.044,298.507 207.393 C 296.663 206.509,296.629 206.508,295.956 207.308 M94.568 209.109 L 94.033 211.343 94.532 211.842 C 95.142 212.453,96.350 212.356,96.927 211.650 C 97.544 210.895,97.446 208.052,96.780 207.386 C 95.633 206.239,95.170 206.600,94.568 209.109 M293.229 207.702 C 292.542 207.909,291.557 208.271,291.042 208.504 L 290.104 208.929 291.206 208.944 C 292.390 208.959,293.562 208.492,294.251 207.731 C 294.469 207.489,294.610 207.299,294.564 207.308 C 294.517 207.316,293.917 207.494,293.229 207.702 M287.753 210.056 C 286.915 210.948,284.792 216.611,284.792 217.953 C 284.792 218.665,287.554 218.205,289.250 217.211 C 291.742 215.750,291.900 211.172,289.498 210.009 C 288.395 209.475,288.297 209.478,287.753 210.056 M292.623 211.094 C 292.456 211.352,292.214 212.359,292.085 213.333 C 291.688 216.328,290.687 217.670,288.167 218.585 L 287.188 218.941 290.156 218.950 L 293.125 218.958 293.125 218.139 C 293.125 217.403,293.183 217.313,293.690 217.253 C 294.196 217.194,294.253 217.106,294.237 216.402 C 294.216 215.423,294.132 215.470,297.165 214.788 C 299.255 214.318,299.580 214.196,299.063 214.077 C 297.890 213.807,297.188 213.373,295.696 211.999 C 294.024 210.460,293.192 210.215,292.623 211.094 M283.125 211.987 C 281.294 212.823,280.714 213.183,280.663 213.517 C 280.554 214.237,282.466 217.391,282.807 217.053 C 282.995 216.866,285.660 211.004,285.583 210.944 C 285.549 210.917,284.443 211.387,283.125 211.987 M138.083 215.819 C 136.683 217.275,135.412 218.065,133.667 218.565 L 132.396 218.929 135.885 218.943 L 139.375 218.958 139.375 216.771 C 139.375 215.568,139.352 214.584,139.323 214.584 C 139.294 214.585,138.736 215.141,138.083 215.819 M232.917 216.814 L 232.917 218.958 236.406 218.945 C 239.798 218.931,239.865 218.923,238.805 218.637 C 237.059 218.167,235.662 217.348,234.242 215.962 L 232.917 214.670 232.917 216.814 M101.875 250.417 L 101.875 266.458 125.208 266.458 L 148.542 266.458 148.542 258.049 L 148.542 249.640 146.563 249.537 C 143.347 249.368,141.272 248.083,139.960 245.445 C 139.504 244.530,139.476 244.215,139.414 239.427 L 139.348 234.375 120.612 234.375 L 101.875 234.375 101.875 250.417 M232.867 239.219 C 232.767 245.076,232.657 245.499,230.733 247.427 C 229.211 248.953,227.589 249.583,225.184 249.583 L 223.745 249.583 223.800 257.969 L 223.854 266.354 248.750 266.354 L 273.646 266.354 273.699 250.365 L 273.753 234.375 253.351 234.375 L 232.950 234.375 232.867 239.219 " stroke="none" fill="#eec424" fill-rule="evenodd"></path><path id="path3" d="M188.847 60.396 C 188.109 60.714,187.816 61.276,187.708 62.578 C 187.532 64.721,185.816 65.405,184.247 63.958 C 182.873 62.692,182.276 62.776,180.658 64.461 C 179.104 66.079,179.051 66.475,180.208 67.813 C 181.094 68.836,181.190 69.217,180.793 70.146 C 180.323 71.247,180.011 71.458,178.850 71.458 C 177.026 71.458,176.667 71.902,176.667 74.159 C 176.667 76.541,176.915 76.898,178.663 77.037 C 180.078 77.149,180.327 77.299,180.741 78.290 C 181.170 79.316,181.120 79.638,180.432 80.298 C 178.990 81.679,179.077 82.579,180.813 84.234 C 182.332 85.684,182.744 85.725,184.087 84.562 C 185.810 83.071,187.526 83.766,187.709 86.030 C 187.857 87.852,188.227 88.125,190.553 88.125 C 192.821 88.125,193.333 87.729,193.333 85.979 C 193.333 84.778,193.536 84.472,194.645 83.999 C 195.597 83.593,196.050 83.705,197.003 84.583 C 198.297 85.775,198.732 85.712,200.347 84.097 C 202.001 82.444,202.076 81.893,200.833 80.545 C 199.938 79.574,199.863 79.299,200.249 78.395 C 200.720 77.291,201.029 77.083,202.208 77.083 C 204.037 77.083,204.479 76.540,204.479 74.295 C 204.479 72.008,204.168 71.614,202.239 71.458 C 200.050 71.282,199.366 69.508,200.833 67.813 C 201.991 66.475,201.937 66.079,200.384 64.461 C 198.777 62.788,198.236 62.712,196.820 63.958 C 195.731 64.918,195.417 64.961,194.271 64.314 C 193.464 63.858,193.434 63.802,193.333 62.552 C 193.185 60.716,192.762 60.337,190.779 60.267 C 189.950 60.237,189.080 60.296,188.847 60.396 M191.925 69.452 C 195.627 70.567,196.723 75.171,193.925 77.854 C 192.002 79.697,188.774 79.617,186.938 77.682 C 183.451 74.007,187.093 67.998,191.925 69.452 M279.545 70.667 C 268.812 72.008,261.133 82.413,262.999 93.085 C 265.098 105.096,277.676 112.255,289.005 107.886 C 289.896 107.542,290.625 107.214,290.625 107.157 C 290.625 107.100,288.445 103.286,285.781 98.683 L 280.938 90.313 280.833 80.416 L 280.729 70.519 279.545 70.667 M305.465 208.333 C 305.465 208.734,305.508 208.898,305.560 208.698 C 305.613 208.497,305.613 208.169,305.560 207.969 C 305.508 207.768,305.465 207.932,305.465 208.333 M290.885 209.102 C 291.086 209.154,291.414 209.154,291.615 209.102 C 291.815 209.050,291.651 209.007,291.250 209.007 C 290.849 209.007,290.685 209.050,290.885 209.102 M295.417 211.771 C 295.805 212.172,296.170 212.500,296.228 212.500 C 296.285 212.500,296.014 212.172,295.625 211.771 C 295.236 211.370,294.871 211.042,294.814 211.042 C 294.757 211.042,295.028 211.370,295.417 211.771 M232.786 216.771 C 232.787 218.031,232.821 218.520,232.863 217.857 C 232.904 217.194,232.904 216.163,232.862 215.565 C 232.820 214.968,232.786 215.510,232.786 216.771 M76.553 226.667 C 76.553 230.964,76.580 232.721,76.614 230.573 C 76.648 228.424,76.648 224.909,76.614 222.760 C 76.580 220.612,76.553 222.370,76.553 226.667 M92.182 250.313 C 92.182 259.135,92.208 262.714,92.240 258.266 C 92.271 253.817,92.271 246.598,92.239 242.224 C 92.208 237.850,92.182 241.490,92.182 250.313 M232.797 238.854 C 232.797 241.375,232.827 242.378,232.864 241.082 C 232.901 239.787,232.900 237.724,232.864 236.499 C 232.827 235.273,232.797 236.333,232.797 238.854 M283.542 247.604 L 283.542 260.833 313.333 260.833 L 343.125 260.833 343.125 247.604 L 343.125 234.375 313.333 234.375 L 283.542 234.375 283.542 247.604 M312.512 246.250 L 324.375 246.250 324.375 245.469 L 324.375 244.688 327.448 244.728 L 330.521 244.768 330.578 247.905 L 330.636 251.042 327.505 251.042 L 324.375 251.042 324.375 250.313 L 324.375 249.583 312.500 249.583 L 300.625 249.583 300.625 250.313 L 300.625 251.042 297.500 251.042 L 294.375 251.042 294.375 247.922 L 294.375 244.803 297.448 244.745 L 300.521 244.688 300.585 245.469 L 300.649 246.250 312.512 246.250 M140.833 246.940 C 140.833 246.976,141.138 247.281,141.510 247.617 L 142.188 248.229 141.576 247.552 C 141.005 246.921,140.833 246.779,140.833 246.940 M145.985 249.525 C 146.355 249.571,147.011 249.572,147.443 249.527 C 147.876 249.482,147.573 249.444,146.771 249.443 C 145.969 249.442,145.615 249.479,145.985 249.525 M224.742 249.522 C 225.001 249.572,225.376 249.570,225.575 249.518 C 225.775 249.466,225.563 249.425,225.104 249.428 C 224.646 249.430,224.483 249.473,224.742 249.522 M283.542 264.792 L 283.542 266.667 313.333 266.667 L 343.125 266.667 343.125 264.792 L 343.125 262.917 313.333 262.917 L 283.542 262.917 283.542 264.792 " stroke="none" fill="#ab4017" fill-rule="evenodd"></path><path id="path4" d="M173.698 51.661 C 173.312 51.966,173.125 52.308,173.125 52.709 C 173.125 53.536,172.431 53.745,171.765 53.119 C 170.542 51.970,168.345 54.165,169.389 55.492 C 169.968 56.228,169.767 56.875,168.959 56.875 C 167.114 56.875,167.160 60.021,169.010 60.399 C 169.839 60.569,169.972 61.059,169.390 61.799 C 168.353 63.117,170.365 65.162,171.716 64.163 C 172.505 63.579,172.972 63.700,173.142 64.531 C 173.533 66.444,176.258 66.444,176.649 64.531 C 176.819 63.703,177.309 63.570,178.049 64.151 C 179.371 65.192,181.425 63.195,180.425 61.842 C 179.818 61.021,179.944 60.571,180.830 60.390 C 182.808 59.985,182.789 56.875,180.808 56.875 C 180.025 56.875,179.832 56.216,180.402 55.492 C 181.473 54.131,179.255 51.965,178.000 53.145 C 177.370 53.737,176.667 53.520,176.667 52.734 C 176.667 51.399,174.858 50.746,173.698 51.661 M176.011 56.755 C 177.937 57.751,177.101 60.729,174.896 60.729 C 174.062 60.729,173.838 60.633,173.316 60.049 C 171.677 58.214,173.805 55.614,176.011 56.755 M283.125 79.569 L 283.125 88.750 292.304 88.750 L 301.484 88.750 301.349 87.760 C 300.109 78.685,293.424 71.678,285.104 70.733 C 284.417 70.655,283.690 70.545,283.490 70.490 C 283.146 70.395,283.125 70.926,283.125 79.569 M287.876 73.919 C 293.022 75.740,297.403 80.491,298.432 85.365 L 298.575 86.042 292.204 86.042 L 285.833 86.042 285.833 79.688 C 285.833 75.921,285.912 73.333,286.027 73.333 C 286.133 73.333,286.965 73.597,287.876 73.919 M82.292 75.020 C 78.191 75.821,75.349 79.467,74.878 84.531 C 74.788 85.497,74.647 86.042,74.486 86.042 C 73.881 86.042,71.636 87.379,70.932 88.159 C 67.296 92.184,68.703 98.656,73.646 100.643 L 74.896 101.146 87.456 101.207 C 102.626 101.281,102.934 101.241,105.273 98.910 C 109.266 94.930,107.569 87.725,102.272 86.163 C 101.358 85.893,101.354 85.887,101.206 84.725 C 100.751 81.124,97.347 79.161,94.264 80.722 C 93.706 81.005,93.245 81.215,93.239 81.191 C 92.272 76.938,87.177 74.066,82.292 75.020 M85.315 83.842 C 87.840 84.897,87.004 88.750,84.249 88.750 C 81.639 88.750,80.731 85.320,82.979 83.950 C 83.774 83.465,84.349 83.438,85.315 83.842 M92.582 83.858 C 94.390 84.715,94.466 87.529,92.706 88.439 C 90.934 89.355,88.958 88.221,88.958 86.288 C 88.958 84.206,90.764 82.995,92.582 83.858 M86.045 89.375 C 85.990 89.547,85.943 90.250,85.941 90.938 C 85.938 91.910,85.852 92.251,85.551 92.475 C 85.008 92.879,84.583 93.998,84.583 95.023 L 84.583 95.893 82.965 95.782 C 82.075 95.721,80.997 95.525,80.569 95.346 L 79.792 95.021 79.792 93.388 C 79.792 90.139,81.090 88.897,84.375 89.005 C 85.839 89.052,86.128 89.117,86.045 89.375 M94.308 89.498 C 95.541 90.413,95.833 91.128,95.833 93.235 L 95.833 95.159 94.932 95.386 C 94.436 95.511,93.498 95.675,92.848 95.752 L 91.667 95.891 91.667 94.914 C 91.667 93.865,91.333 93.037,90.669 92.436 C 90.314 92.114,90.285 91.960,90.470 91.359 C 90.647 90.780,90.610 90.507,90.255 89.789 L 89.825 88.919 91.773 88.991 C 93.349 89.049,93.832 89.146,94.308 89.498 M239.844 89.896 C 239.847 90.354,239.889 90.517,239.939 90.258 C 239.989 89.999,239.987 89.624,239.935 89.425 C 239.883 89.225,239.842 89.438,239.844 89.896 M89.360 89.924 C 89.933 90.652,89.905 91.364,89.280 91.989 C 87.743 93.526,85.599 91.376,87.036 89.740 C 87.550 89.154,88.834 89.256,89.360 89.924 M152.292 90.104 C 152.680 90.505,153.045 90.833,153.103 90.833 C 153.160 90.833,152.889 90.505,152.500 90.104 C 152.111 89.703,151.746 89.375,151.689 89.375 C 151.632 89.375,151.903 89.703,152.292 90.104 M284.415 91.510 C 284.579 91.768,286.529 95.137,288.750 98.997 L 292.787 106.014 293.425 105.569 C 297.520 102.711,300.668 97.364,301.333 92.135 L 301.473 91.042 292.796 91.042 L 284.119 91.042 284.415 91.510 M90.224 93.317 C 90.763 93.856,90.833 94.072,90.833 95.183 L 90.833 96.439 90.052 96.656 C 89.029 96.940,86.901 96.935,86.073 96.646 C 85.436 96.424,85.417 96.382,85.417 95.172 C 85.417 93.304,86.072 92.708,88.125 92.708 C 89.494 92.708,89.665 92.758,90.224 93.317 M193.617 100.417 C 193.617 101.505,193.652 101.951,193.695 101.406 C 193.738 100.862,193.738 99.971,193.695 99.427 C 193.652 98.883,193.617 99.328,193.617 100.417 M193.623 104.066 C 193.610 104.527,193.399 105.297,193.154 105.777 C 192.640 106.783,192.607 106.958,192.969 106.750 C 193.120 106.663,193.156 106.679,193.056 106.790 C 192.960 106.894,192.819 106.962,192.743 106.942 C 192.545 106.889,191.875 107.525,191.875 107.766 C 191.875 107.877,192.039 107.842,192.240 107.688 C 192.440 107.534,192.377 107.663,192.099 107.975 C 191.574 108.564,191.212 108.777,191.667 108.229 C 191.809 108.057,191.835 107.917,191.724 107.917 C 191.486 107.917,190.877 108.556,190.831 108.854 C 190.813 108.969,190.745 109.109,190.678 109.167 C 190.612 109.224,190.635 109.138,190.730 108.975 C 190.864 108.744,190.815 108.717,190.503 108.851 C 188.559 109.687,187.774 109.832,185.625 109.751 C 183.457 109.669,183.380 109.649,181.169 108.577 C 181.066 108.528,181.059 108.616,181.153 108.775 C 181.246 108.933,181.118 108.884,180.869 108.666 C 180.329 108.192,180.263 107.957,180.781 108.352 C 180.982 108.505,180.870 108.329,180.534 107.961 C 179.880 107.246,179.555 107.052,180.023 107.656 C 180.253 107.953,180.219 107.947,179.840 107.624 C 179.348 107.204,179.214 106.959,179.610 107.204 C 179.753 107.292,179.808 107.236,179.749 107.060 C 179.696 106.901,179.551 106.771,179.427 106.771 C 179.303 106.771,179.123 106.685,179.028 106.581 C 178.927 106.471,178.963 106.454,179.115 106.541 C 179.459 106.740,179.447 106.662,178.963 105.596 C 178.736 105.096,178.549 104.477,178.546 104.219 L 178.542 103.750 156.927 103.699 L 135.313 103.649 156.979 103.542 L 178.646 103.435 156.723 103.384 L 134.801 103.333 135.766 104.219 C 136.297 104.706,136.807 105.082,136.901 105.054 C 136.994 105.027,137.173 105.214,137.297 105.471 C 137.514 105.919,137.510 105.922,137.199 105.533 C 136.737 104.957,136.799 105.290,137.342 106.310 C 137.788 107.147,137.976 109.913,137.683 111.312 C 137.618 111.621,138.292 111.968,141.563 113.309 C 147.813 115.871,153.570 118.367,160.208 121.394 C 166.759 124.380,166.998 124.473,167.215 124.122 C 167.300 123.985,167.260 123.953,167.116 124.043 C 166.740 124.275,166.833 123.835,167.227 123.515 C 167.528 123.272,167.554 123.273,167.404 123.522 C 167.286 123.716,167.305 123.766,167.459 123.671 C 167.586 123.593,167.643 123.406,167.586 123.256 C 167.528 123.106,167.649 122.851,167.855 122.690 C 168.204 122.415,168.208 122.424,167.917 122.813 C 167.629 123.196,167.633 123.207,167.956 122.954 C 168.150 122.802,168.266 122.566,168.213 122.429 C 168.088 122.104,170.263 119.958,170.634 120.041 C 170.790 120.076,170.923 119.964,170.929 119.792 C 170.934 119.620,171.096 119.478,171.288 119.477 C 171.480 119.475,171.714 119.390,171.808 119.287 C 171.907 119.179,171.847 119.165,171.667 119.253 C 171.495 119.338,171.581 119.208,171.857 118.965 C 172.134 118.722,172.490 118.573,172.649 118.634 C 172.808 118.695,172.883 118.656,172.816 118.547 C 172.654 118.285,174.331 117.438,174.719 117.587 C 174.885 117.651,174.967 117.616,174.901 117.508 C 174.835 117.401,175.536 117.075,176.460 116.783 C 179.578 115.798,183.324 115.631,182.786 116.501 C 182.700 116.640,182.739 116.672,182.886 116.582 C 183.019 116.499,183.454 116.550,183.853 116.695 C 184.252 116.839,184.492 117.011,184.385 117.077 C 183.920 117.365,188.096 117.098,189.015 116.782 C 189.561 116.593,190.115 116.505,190.245 116.585 C 190.386 116.672,190.424 116.638,190.339 116.501 C 190.075 116.074,191.039 115.786,192.265 115.926 C 195.035 116.242,198.444 117.152,198.220 117.515 C 198.156 117.619,198.240 117.651,198.406 117.587 C 198.830 117.425,200.468 118.290,200.288 118.582 C 200.201 118.722,200.238 118.756,200.380 118.668 C 200.674 118.487,201.512 118.912,201.357 119.163 C 201.294 119.264,201.353 119.414,201.487 119.497 C 201.639 119.591,201.675 119.557,201.582 119.407 C 201.350 119.032,201.790 119.125,202.110 119.519 C 202.357 119.823,202.353 119.846,202.083 119.688 C 201.814 119.529,201.810 119.552,202.057 119.856 C 202.366 120.237,202.605 120.339,202.396 120.000 C 202.325 119.885,202.346 119.792,202.442 119.792 C 202.772 119.792,205.231 122.431,205.168 122.716 C 205.133 122.873,205.245 123.008,205.417 123.016 C 205.589 123.024,205.717 123.189,205.702 123.382 C 205.686 123.576,205.780 123.714,205.910 123.690 C 206.040 123.666,206.133 123.809,206.117 124.008 C 206.102 124.207,206.175 124.317,206.279 124.253 C 206.539 124.092,207.644 126.583,208.021 128.179 C 208.247 129.140,208.328 130.841,208.330 134.706 L 208.333 139.933 208.864 140.175 C 209.538 140.482,209.640 140.479,209.474 140.156 C 209.400 140.013,209.629 140.202,209.982 140.576 C 210.336 140.950,210.625 141.372,210.624 141.514 C 210.624 141.655,210.438 141.466,210.211 141.094 C 209.984 140.721,209.744 140.417,209.679 140.417 C 209.613 140.417,209.706 140.625,209.884 140.880 C 210.142 141.248,210.209 141.984,210.214 144.473 L 210.219 147.604 211.932 148.630 C 225.211 156.584,241.705 167.659,253.586 176.600 C 255.158 177.783,256.494 178.750,256.556 178.750 C 256.619 178.750,256.645 164.687,256.616 147.500 C 256.587 130.312,256.633 116.250,256.718 116.250 C 256.804 116.250,256.898 130.477,256.927 147.865 L 256.981 179.479 257.032 147.867 L 257.083 116.255 255.573 115.496 C 254.742 115.078,253.657 114.459,253.162 114.119 C 252.667 113.779,252.217 113.547,252.162 113.602 C 252.107 113.657,252.394 113.908,252.802 114.160 C 253.474 114.575,253.897 115.022,253.281 114.666 C 252.464 114.193,251.883 113.697,251.975 113.549 C 252.033 113.455,251.866 113.239,251.604 113.067 C 251.119 112.749,250.313 113.041,250.313 113.533 C 250.313 113.633,250.227 113.793,250.123 113.889 C 250.011 113.991,250.001 113.945,250.100 113.775 C 250.214 113.578,250.175 113.518,249.977 113.584 C 249.818 113.637,249.688 113.782,249.688 113.906 C 249.688 114.030,249.602 114.210,249.498 114.306 C 249.388 114.406,249.371 114.370,249.458 114.219 C 249.674 113.844,249.420 113.897,248.617 114.393 C 248.230 114.632,247.963 114.907,248.023 115.003 C 248.083 115.100,248.022 115.247,247.888 115.330 C 247.727 115.430,247.700 115.390,247.809 115.213 C 247.920 115.035,247.878 114.978,247.685 115.042 C 247.526 115.095,247.396 115.240,247.396 115.365 C 247.396 115.489,247.310 115.668,247.206 115.764 C 247.096 115.865,247.079 115.828,247.166 115.677 C 247.404 115.265,247.126 115.365,245.858 116.147 C 242.959 117.937,239.606 117.666,237.350 115.459 C 236.802 114.924,236.292 114.484,236.215 114.482 C 236.139 114.481,235.998 114.394,235.903 114.290 C 235.800 114.178,235.847 114.168,236.017 114.266 C 236.213 114.380,236.274 114.342,236.208 114.144 C 236.155 113.984,236.010 113.854,235.885 113.854 C 235.761 113.854,235.582 113.769,235.486 113.665 C 235.384 113.553,235.430 113.543,235.600 113.641 C 235.933 113.834,235.944 113.866,235.029 112.042 C 234.148 110.287,234.048 108.195,234.769 106.566 C 235.282 105.405,235.293 105.343,234.948 105.542 C 234.797 105.629,234.760 105.612,234.861 105.502 C 234.957 105.398,235.103 105.313,235.186 105.313 C 235.270 105.313,235.655 104.951,236.043 104.509 C 236.431 104.068,236.941 103.629,237.176 103.534 C 237.412 103.439,227.714 103.332,215.625 103.295 L 193.646 103.229 193.623 104.066 M226.110 103.698 C 220.246 103.729,210.590 103.729,204.651 103.698 C 198.713 103.667,203.510 103.642,215.313 103.642 C 227.115 103.642,231.973 103.667,226.110 103.698 M138.276 109.844 C 138.229 110.216,138.192 109.911,138.192 109.167 C 138.192 108.422,138.229 108.117,138.276 108.490 C 138.322 108.862,138.322 109.471,138.276 109.844 M233.897 109.425 C 233.848 109.684,233.805 109.521,233.803 109.063 C 233.800 108.604,233.841 108.392,233.893 108.591 C 233.945 108.791,233.947 109.166,233.897 109.425 M182.829 109.740 C 182.734 109.836,181.458 109.203,181.458 109.061 C 181.458 109.008,181.785 109.121,182.185 109.312 C 182.584 109.502,182.874 109.695,182.829 109.740 M187.135 110.154 C 186.534 110.196,185.549 110.196,184.948 110.154 C 184.346 110.112,184.839 110.077,186.042 110.077 C 187.245 110.077,187.737 110.112,187.135 110.154 M237.188 115.625 C 237.635 116.083,237.954 116.458,237.897 116.458 C 237.840 116.458,237.427 116.083,236.979 115.625 C 236.532 115.167,236.212 114.792,236.270 114.792 C 236.327 114.792,236.740 115.167,237.188 115.625 M181.250 116.122 C 181.250 116.166,181.526 116.243,181.864 116.293 C 182.202 116.342,182.431 116.306,182.373 116.212 C 182.269 116.045,181.250 115.963,181.250 116.122 M239.496 117.240 C 239.401 117.336,238.125 116.703,238.125 116.561 C 238.125 116.508,238.452 116.621,238.852 116.812 C 239.251 117.002,239.541 117.195,239.496 117.240 M245.833 116.558 C 245.833 116.711,244.220 117.500,243.915 117.497 C 243.767 117.496,244.115 117.269,244.688 116.993 C 245.914 116.402,245.833 116.433,245.833 116.558 M203.646 121.250 C 204.093 121.708,204.506 122.083,204.564 122.083 C 204.621 122.083,204.302 121.708,203.854 121.250 C 203.407 120.792,202.994 120.417,202.936 120.417 C 202.879 120.417,203.198 120.792,203.646 121.250 M169.258 121.302 L 168.646 121.979 169.323 121.367 C 169.695 121.031,170.000 120.726,170.000 120.690 C 170.000 120.529,169.828 120.671,169.258 121.302 M165.048 130.417 C 165.048 130.818,165.091 130.982,165.144 130.781 C 165.196 130.581,165.196 130.253,165.144 130.052 C 165.091 129.852,165.048 130.016,165.048 130.417 M210.780 146.302 C 210.740 147.133,210.708 146.453,210.708 144.792 C 210.708 143.130,210.740 142.451,210.780 143.281 C 210.819 144.112,210.819 145.471,210.780 146.302 M164.420 169.635 L 164.375 172.500 165.521 172.500 L 166.667 172.500 166.667 173.750 L 166.667 175.000 157.643 175.000 L 148.620 175.000 148.008 175.677 L 147.396 176.354 148.032 175.781 L 148.669 175.208 157.772 175.208 L 166.875 175.208 166.875 173.750 L 166.875 172.292 165.735 172.292 L 164.595 172.292 164.531 169.531 L 164.466 166.771 164.420 169.635 M167.448 167.031 C 168.966 167.066,171.451 167.066,172.969 167.031 C 174.487 166.995,173.245 166.966,170.208 166.966 C 167.172 166.966,165.930 166.995,167.448 167.031 M200.156 167.031 C 201.674 167.066,204.159 167.066,205.677 167.031 C 207.195 166.995,205.953 166.966,202.917 166.966 C 199.880 166.966,198.638 166.995,200.156 167.031 M208.542 169.583 L 208.542 172.292 207.386 172.292 L 206.231 172.292 206.293 173.698 L 206.354 175.104 215.090 175.159 C 223.037 175.208,223.865 175.246,224.257 175.575 C 224.687 175.937,224.687 175.937,224.291 175.469 L 223.894 175.000 215.176 175.000 L 206.458 175.000 206.458 173.750 L 206.458 172.500 207.604 172.500 L 208.750 172.500 208.750 169.688 C 208.750 168.141,208.703 166.875,208.646 166.875 C 208.589 166.875,208.542 168.094,208.542 169.583 M224.792 176.315 C 224.792 176.351,225.096 176.656,225.469 176.992 L 226.146 177.604 225.534 176.927 C 224.964 176.296,224.792 176.154,224.792 176.315 M146.447 177.448 L 145.729 178.229 146.510 177.511 C 147.238 176.843,147.387 176.667,147.228 176.667 C 147.194 176.667,146.842 177.018,146.447 177.448 M226.250 177.982 C 226.250 178.018,226.555 178.322,226.927 178.659 L 227.604 179.271 226.992 178.594 C 226.422 177.963,226.250 177.821,226.250 177.982 M145.001 179.061 L 144.513 179.581 129.809 179.635 L 115.104 179.690 129.805 179.741 L 144.505 179.792 145.104 179.167 C 145.434 178.823,145.655 178.542,145.596 178.542 C 145.537 178.542,145.270 178.775,145.001 179.061 M235.067 179.740 C 239.172 179.771,245.828 179.771,249.859 179.739 C 253.890 179.708,250.531 179.682,242.396 179.682 C 234.260 179.682,230.963 179.708,235.067 179.740 M165.885 192.031 C 176.971 192.061,195.112 192.061,206.198 192.031 C 217.284 192.001,208.214 191.977,186.042 191.977 C 163.870 191.977,154.799 192.001,165.885 192.031 M141.133 194.219 L 140.521 194.896 141.198 194.284 C 141.570 193.947,141.875 193.643,141.875 193.607 C 141.875 193.446,141.703 193.588,141.133 194.219 M233.011 206.250 C 233.011 210.661,233.039 212.466,233.073 210.260 C 233.106 208.055,233.106 204.445,233.073 202.240 C 233.039 200.034,233.011 201.839,233.011 206.250 M84.375 203.958 C 84.375 205.069,84.460 205.833,84.583 205.833 C 84.707 205.833,84.792 205.069,84.792 203.958 C 84.792 202.847,84.707 202.083,84.583 202.083 C 84.460 202.083,84.375 202.847,84.375 203.958 M98.199 209.479 C 98.198 210.510,98.234 210.959,98.277 210.475 C 98.321 209.992,98.321 209.148,98.278 208.600 C 98.235 208.052,98.200 208.448,98.199 209.479 M250.682 209.375 C 250.682 209.891,250.722 210.102,250.772 209.844 C 250.822 209.586,250.822 209.164,250.772 208.906 C 250.722 208.648,250.682 208.859,250.682 209.375 M325.854 217.538 C 325.957 217.731,326.042 218.130,326.042 218.424 L 326.042 218.958 338.958 218.958 L 351.875 218.958 351.875 218.128 L 351.875 217.298 338.771 217.243 C 326.539 217.191,325.679 217.211,325.854 217.538 M293.125 218.125 L 293.125 218.958 306.042 218.958 C 318.203 218.958,318.958 218.937,318.961 218.594 C 318.963 218.393,319.021 218.018,319.090 217.760 L 319.215 217.292 306.170 217.292 L 293.125 217.292 293.125 218.125 M148.637 258.021 C 148.637 262.719,148.664 264.670,148.698 262.358 C 148.731 260.045,148.731 256.201,148.698 253.816 C 148.664 251.431,148.637 253.323,148.637 258.021 M162.341 249.740 L 175.829 249.795 175.885 258.179 L 175.942 266.563 175.992 258.073 L 176.042 249.583 162.448 249.634 L 148.854 249.684 162.341 249.740 M202.865 249.739 C 206.674 249.771,212.909 249.771,216.719 249.739 C 220.529 249.708,217.411 249.682,209.792 249.682 C 202.172 249.682,199.055 249.708,202.865 249.739 " stroke="none" fill="#54bfb0" fill-rule="evenodd"></path></g></svg>